<?xml version="1.0" encoding="utf-8"?>
<!-- Generator: Adobe Illustrator 24.0.2, SVG Export Plug-In . SVG Version: 6.00 Build 0)  -->
<svg version="1.1" id="图层_1" xmlns="http://www.w3.org/2000/svg" xmlns:xlink="http://www.w3.org/1999/xlink" x="0px" y="0px"
	 viewBox="0 0 497.8 444.9" style="enable-background:new 0 0 497.8 444.9;" xml:space="preserve">
<style type="text/css">
	.st0{fill:#C69C6D;}
</style>
<g>
	<path class="st0" d="M406.9,156.3c-0.1-6.3-5.3-11.4-11.6-11.4H102.5c-6.3,0-11.5,5.1-11.6,11.4l0,1.7l0,1.7
		c0.1,6.3,5.3,11.4,11.6,11.4h292.9c6.3,0,11.5-5.1,11.6-11.4l0-1.7L406.9,156.3z"/>
	<path class="st0" d="M391,181.8H106.8c-3.6,0-6.9,1.6-9.1,4.4c-2.2,2.9-3,6.5-2.1,10c0.3,1.1,0.6,2.2,1,3.7
		c0.4,1.6,0.9,3.2,1.4,4.6C118.5,271.2,179.1,316,248.9,316c68.7,0,130.7-45.9,150.9-111.3c0.5-1.5,1-3.1,1.4-4.6l0.1-0.5
		c0.3-1.1,0.6-2.2,0.9-3.3c0.9-3.5,0.1-7.2-2.1-10C397.9,183.5,394.6,181.8,391,181.8z M369.9,209.8c-20.8,48.5-68.3,79.8-121,79.8
		c-52.7,0-100.2-31.3-121-79.8c-0.2-0.4,0-0.8,0.1-1.1c0.1-0.2,0.5-0.6,1.1-0.6h239.7c0.6,0,0.9,0.4,1.1,0.6
		C369.9,209,370.1,209.4,369.9,209.8z"/>
	<path class="st0" d="M106.8,134.2h98.7c6.4,0,11.6-5.2,11.6-11.6V64.4c0-4-2-7.6-5.4-9.8c-3.4-2.1-7.5-2.4-11.2-0.7
		c-2.4,1.1-4.8,2.4-7.1,3.7C182,63.9,171.7,72.2,163,82c-3.1,3.5-3.8,8.3-1.9,12.5c1.9,4.2,5.9,6.8,10.5,6.8h4.3
		c3.2,0,6.2-1.3,8.4-3.7c2-2.2,4.2-4.3,6.4-6.2v15.2c0,0.7-0.6,1.2-1.2,1.2h-60.5c-0.6,0-0.9-0.4-1.1-0.6c-0.2-0.3-0.3-0.7-0.1-1
		c13.3-31.1,38.9-56.5,70.1-69.6c5.2-2.2,10.3-4,15.4-5.4c22.9-6.5,48.1-6.5,71.1,0c5,1.4,10.2,3.2,15.4,5.4
		c31.2,13.1,56.7,38.5,70.1,69.6c0.2,0.4,0.1,0.7-0.1,1c-0.1,0.2-0.5,0.6-1.1,0.6h-60.5c-0.7,0-1.2-0.6-1.2-1.2V91.4
		c2.2,2,4.4,4,6.4,6.2c2.2,2.4,5.3,3.7,8.4,3.7h4.3c4.6,0,8.6-2.6,10.5-6.8c1.9-4.2,1.2-9-1.9-12.5c-8.7-9.9-19-18.1-30.5-24.5
		c-2.3-1.3-4.7-2.5-7.2-3.7c-3.6-1.7-7.8-1.4-11.2,0.7c-3.3,2.1-5.3,5.8-5.3,9.8v58.2c0,6.4,5.2,11.6,11.6,11.6H391
		c3.6,0,6.9-1.6,9.1-4.5c2.2-2.8,3-6.5,2.1-9.9c-0.7-2.8-1.5-5.6-2.3-8.3c-14.4-46.7-50.4-84.7-96.3-101.7c-5.4-2-10.8-3.7-16.6-5.1
		c-24.9-6.2-51.4-6.2-76.4,0c-5.8,1.4-11.2,3.1-16.5,5.1c-45.8,17-81.8,55-96.3,101.7c-0.8,2.7-1.6,5.5-2.3,8.3
		c-0.9,3.5-0.1,7.1,2.1,9.9C99.9,132.5,103.2,134.2,106.8,134.2z"/>
</g>
<g>
	<path d="M0,397.9v-55h15.7v21.3h33v-21.3h15.7v55H48.6v-21h-33v21H0z"/>
	<path d="M178.6,397.9h-19.7l-3.5-7.4h-27.2l-3.7,7.4h-19.7l29.3-55h15.6L178.6,397.9z M149.1,377.8l-7.2-13.4l-7.5,13.4H149.1z"/>
	<path d="M219.3,365.8h44.4l1.4-1.1v-8.5l-1.4-1.1h-44.4v-12.3h54.3c0.8,0,1.7,0.3,2.6,0.8c0.9,0.5,1.7,1.1,2.5,1.9
		c0.8,0.8,1.4,1.6,1.9,2.5c0.5,0.9,0.7,1.8,0.7,2.6v17.6c0,1.9-0.4,3.5-1.3,4.8c-0.9,1.4-2,2.5-3.3,3.3c-1.4,0.9-2.9,1.5-4.7,1.9
		c-1.7,0.4-3.5,0.6-5.2,0.6l21.3,19h-22.2l-21.4-19h-9.4v19h-15.8V365.8z"/>
	<path d="M326.8,365.8h46.4l1.4-1.1v-8.5l-1.4-1.1h-46.4v-12.3h56.3c0.9,0,1.8,0.3,2.7,0.8c0.9,0.5,1.7,1.1,2.5,1.9
		c0.7,0.8,1.4,1.6,1.9,2.5c0.5,0.9,0.7,1.8,0.7,2.6v17.6c0,1.9-0.3,3.5-0.8,4.8c-0.6,1.4-1.3,2.4-2.3,3.3c-0.9,0.8-2,1.4-3.2,1.8
		c-1.2,0.4-2.4,0.6-3.7,0.6h-38.3v19.1h-15.8V365.8z"/>
	<path d="M440,376.3c-1.2-0.4-2.3-1-3.2-1.8c-0.9-0.8-1.7-1.9-2.2-3.2c-0.6-1.3-0.8-3-0.8-4.9v-15.8c0-0.8,0.3-1.7,0.8-2.6
		c0.5-0.9,1.1-1.7,1.9-2.5c0.8-0.8,1.6-1.4,2.5-1.9s1.8-0.8,2.6-0.8h56.3v12.3h-46.4l-1.4,1.1v6.6l1.2,1h36.7c1.2,0,2.5,0.2,3.7,0.6
		c1.2,0.4,2.3,1,3.2,1.8c0.9,0.8,1.7,1.9,2.2,3.2c0.6,1.3,0.8,3,0.8,4.9v15.8c0,0.8-0.3,1.7-0.7,2.6c-0.5,0.9-1.1,1.7-1.9,2.5
		c-0.7,0.8-1.6,1.4-2.5,1.9c-0.9,0.5-1.8,0.8-2.7,0.8h-56.3v-12.3h46.4l1.4-1.1v-6.6l-1.1-1h-36.7
		C442.5,376.9,441.2,376.7,440,376.3z"/>
</g>
<g>
	<path d="M15.1,430.8v-9.5h3.1v22.9h-3.1v-10.7h-12v10.7H0v-22.9h3.1v9.5H15.1z"/>
	<path d="M92,432.8c0,3.1-0.8,5.7-2.4,7.9c-2,2.8-4.9,4.2-8.8,4.2c-3.9,0-6.8-1.4-8.8-4.2c-1.6-2.2-2.4-4.8-2.4-7.9
		c0-3.1,0.8-5.7,2.4-7.9c2-2.8,4.9-4.2,8.8-4.2c3.9,0,6.8,1.4,8.8,4.2C91.2,427.1,92,429.7,92,432.8z M88.8,432.8
		c0-2.7-0.7-5-2.1-6.7c-1.5-1.8-3.4-2.7-5.9-2.7s-4.4,0.9-5.8,2.6c-1.4,1.7-2.1,4-2.1,6.7s0.7,5,2.1,6.7c1.4,1.7,3.4,2.6,5.8,2.6
		s4.4-0.9,5.8-2.6C88.1,437.8,88.8,435.5,88.8,432.8z"/>
	<path d="M146.7,421.3v20.2h11.6v2.7h-14.7v-22.9H146.7z"/>
	<path d="M209.3,444.2v-22.9h9.3c2.9,0,5.3,1,7,3.1c1.7,2,2.6,4.7,2.6,8.1c0,3.1-0.7,5.7-2,7.8c-1.7,2.6-4.3,4-7.7,4H209.3z
		 M212.4,424v17.6h6c2,0,3.7-0.8,4.9-2.3s1.8-3.8,1.8-6.6c0-2.8-0.6-5-1.8-6.5c-1.2-1.5-2.9-2.2-5-2.2H212.4z"/>
	<path d="M283.7,421.3v22.9h-3.1v-22.9H283.7z"/>
	<path d="M352,421.3h3v22.9h-3.5l-11.6-18.5l-0.1,18.5h-3v-22.9l3.7,0l11.4,18.5L352,421.3z"/>
	<path d="M417.7,434.6V432h10v12.3h-2l-0.7-3c-0.8,1.1-1.9,2-3.2,2.6c-1.4,0.7-2.8,1-4.3,1c-1.7,0-3.3-0.3-4.5-0.9
		c-0.9-0.4-1.7-1-2.5-1.7c-1.6-1.5-2.6-3.2-3.1-5.2c-0.3-1.2-0.5-2.7-0.5-4.5c0-3.1,0.9-5.8,2.6-8c2-2.6,4.7-3.8,8.2-3.8
		c2.3,0,4.4,0.6,6.2,1.9c2,1.4,3.2,3.3,3.5,5.7h-3c-0.4-1.8-1.4-3.1-2.8-3.9c-1.1-0.6-2.4-0.9-4-0.9c-2.1,0-3.9,0.8-5.3,2.4
		c-1.5,1.7-2.2,4-2.2,6.9c0,2.8,0.5,4.9,1.5,6.5c1.3,2,3.3,3,6.1,3c0.8,0,1.5-0.1,2.1-0.2c0.9-0.2,1.8-0.6,2.6-1.2
		c1-0.7,1.6-1.6,2-2.6c0.4-1,0.5-2.2,0.5-3.5H417.7z"/>
	<path d="M497.2,428h-2.9c0-1.6-0.6-2.8-1.9-3.6c-1-0.7-2.3-1-3.8-1c-1.4,0-2.5,0.2-3.4,0.7c-1.3,0.7-1.9,1.8-1.9,3.3
		c0,0.9,0.3,1.6,0.8,2c0.4,0.4,1.1,0.7,1.9,0.9l6.5,1.5c1.6,0.4,2.8,1,3.7,1.9c1,1.1,1.5,2.5,1.5,4.2c0,2.4-1,4.3-3,5.5
		c-1.6,1-3.6,1.4-6,1.4c-1.9,0-3.4-0.2-4.7-0.7c-0.8-0.3-1.5-0.8-2.3-1.5c-0.9-0.8-1.5-1.7-1.8-2.6c-0.3-0.9-0.5-2-0.5-3.2h2.9
		c0,1.9,0.7,3.3,2,4.2c1.1,0.8,2.5,1.1,4.3,1.1c2.1,0,3.6-0.4,4.7-1.1c0.9-0.7,1.3-1.6,1.3-2.7c0-1.2-0.3-2-1-2.6
		c-0.7-0.5-2-1-3.9-1.5l-4.7-1.1c-1.3-0.3-2.3-0.7-3-1.3c-1.3-1-1.9-2.3-1.9-4.1c0-2,0.6-3.6,1.9-4.9c1.4-1.5,3.4-2.2,6-2.2
		c3.5,0,6,0.9,7.5,2.7C496.7,424.6,497.2,426.2,497.2,428z"/>
</g>
</svg>
